<svg xmlns="http://www.w3.org/2000/svg" width="1423.694" height="5262.227"><g data-name="Group 514" fill="none" stroke-width="2"><path data-name="Path 62" stroke="#62638e" d="M1101.582 1.283s88.405 241.887-221.654 203.413-864.071-350.88-627.651 701.4" stroke-linecap="round" stroke-linejoin="round" stroke-dasharray="5 15"/><g data-name="Group 513"><path data-name="Path 63" stroke="#62638e" d="M1210.748 1075.317s95.334-217.146-248.358-173.3-592.348 278.284-707.25 10.49" stroke-linecap="round" stroke-linejoin="round" stroke-dasharray="5 15"/><path data-name="Path 64" d="M1239.592 1795.117s30.094 171.683-438.489 36.509S39.589 1727.76 31.665 1952.003" stroke="#57576e" stroke-dasharray="5 15"/><path data-name="Path 66" stroke="#62638e" d="M28.83 1974.966s-65.476 522.186 203.853 477.186 1053.052-458 1041.736 16.717-194.989 669.405-595.88 577.242-678.868-179.934-676.6 110.3" stroke-linecap="round" stroke-linejoin="round" stroke-dasharray="5 15"/><path data-name="Path 65" stroke="#45455a" d="M1208.127 1085.747s-40.732 195.555 46.314 121.344 71.308 105.609-12.257 575.6" stroke-linecap="round" stroke-linejoin="round" stroke-dasharray="5 15"/><path data-name="Path 67" stroke="#45455a" d="M1.629 3162.99s-19.8 435.3 175.189 579.8 1008.01-539.694 1032.384-109.68-198.468 724.236-647.634 644.152-534.472-43.524-530.99 134.053 3.482 651.116 306.407 658.08 1263.931-262.885 1056.758 191.5" stroke-linecap="round" stroke-linejoin="round" stroke-dasharray="5 10"/></g></g></svg>